<svg width="129" height="24" viewBox="0 0 129 24" fill="none" xmlns="http://www.w3.org/2000/svg">
<path d="M124.748 17.1673C122.997 17.1673 122.336 16.2757 122.336 14.7066V10.2309H121.156V8.25169H122.336V6.21894L124.784 5.84448V8.25169H126.445V10.2309H124.784V14.2608C124.784 15.0632 124.945 15.188 125.641 15.188H126.445V17.1673H124.748Z" fill="#2C2C30"/>
<path d="M116.763 17.3454C114.172 17.3454 112.296 15.705 112.296 12.7093C112.296 9.71371 114.172 8.07324 116.763 8.07324C119.336 8.07324 121.213 9.71371 121.213 12.7093C121.213 15.705 119.336 17.3454 116.763 17.3454ZM114.834 12.9233C114.834 14.5816 115.566 15.491 116.763 15.491C117.961 15.491 118.693 14.5816 118.693 12.9233V12.4954C118.693 10.8371 117.961 9.92768 116.763 9.92768C115.566 9.92768 114.834 10.8371 114.834 12.4954V12.9233Z" fill="#2C2C30"/>
<path d="M108.076 17.3457C106.79 17.3457 105.843 16.6503 105.253 15.5269L105.217 17.1674H102.876V4.57861H105.324V9.76748C105.914 8.71544 106.843 8.07352 108.076 8.07352C109.988 8.07352 111.65 9.57134 111.65 12.7096C111.65 15.8479 109.988 17.3457 108.076 17.3457ZM105.324 13.1911C105.324 14.6532 106.003 15.5983 107.201 15.5983C108.416 15.5983 109.112 14.6354 109.112 12.9236V12.4957C109.112 10.8552 108.416 9.92796 107.201 9.92796C106.003 9.92796 105.324 10.8374 105.324 12.2104V13.1911Z" fill="#2C2C30"/>
<path d="M97.4722 17.3454C94.8813 17.3454 93.0051 15.705 93.0051 12.7093C93.0051 9.71371 94.8813 8.07324 97.4722 8.07324C100.045 8.07324 101.921 9.71371 101.921 12.7093C101.921 15.705 100.045 17.3454 97.4722 17.3454ZM95.5424 12.9233C95.5424 14.5816 96.275 15.491 97.4722 15.491C98.6694 15.491 99.402 14.5816 99.402 12.9233V12.4954C99.402 10.8371 98.6694 9.92768 97.4722 9.92768C96.275 9.92768 95.5424 10.8371 95.5424 12.4954V12.9233Z" fill="#2C2C30"/>
<path d="M83.6909 17.1674V5.04224H88.3188C90.9991 5.04224 92.7323 6.55788 92.7323 8.92943C92.7323 10.8017 91.6781 12.0855 90.0163 12.567L93.1254 17.1674H90.195L87.5683 12.7988H86.1389V17.1674H83.6909ZM86.1389 10.8017H88.158C89.4445 10.8017 90.195 10.1419 90.195 9.07208V8.89377C90.195 7.8239 89.4445 7.14631 88.158 7.14631H86.1389V10.8017Z" fill="#2C2C30"/>
<path d="M76.7053 20.7335L77.8131 16.8642H76.1871L73.5604 8.25171H76.1156L77.5987 13.4584L78.1526 15.5981H78.2241L78.778 13.4584L80.261 8.25171H82.7626L79.1175 20.7335H76.7053Z" fill="#2C2C30"/>
<path d="M64.7571 20.7334V8.25155H67.0979L67.1336 9.89202C67.7233 8.76866 68.6703 8.07324 69.9568 8.07324C71.8687 8.07324 73.5305 9.57106 73.5305 12.7093C73.5305 15.8476 71.8687 17.3454 69.9568 17.3454C68.7239 17.3454 67.7948 16.7035 67.2051 15.6515V20.7334H64.7571ZM67.2051 13.2086C67.2051 14.5816 67.8841 15.491 69.0813 15.491C70.2963 15.491 70.9932 14.5638 70.9932 12.9233V12.4954C70.9932 10.7836 70.2963 9.8207 69.0813 9.8207C67.8841 9.8207 67.2051 10.7657 67.2051 12.2279V13.2086Z" fill="#2C2C30"/>
<path d="M55.0327 20.7334V8.25155H57.3735L57.4092 9.89202C57.9989 8.76866 58.9459 8.07324 60.2324 8.07324C62.1443 8.07324 63.8061 9.57106 63.8061 12.7093C63.8061 15.8476 62.1443 17.3454 60.2324 17.3454C58.9995 17.3454 58.0703 16.7035 57.4807 15.6515V20.7334H55.0327ZM57.4807 13.2086C57.4807 14.5816 58.1597 15.491 59.3569 15.491C60.5719 15.491 61.2688 14.5638 61.2688 12.9233V12.4954C61.2688 10.7836 60.5719 9.8207 59.3569 9.8207C58.1597 9.8207 57.4807 10.7657 57.4807 12.2279V13.2086Z" fill="#2C2C30"/>
<path d="M48.665 17.3454C46.8603 17.3454 45.949 16.2577 45.949 14.9561C45.949 13.3869 47.2534 12.5845 48.5041 12.2279L51.3988 11.4077V11.372C51.3988 10.3021 50.8985 9.8207 49.9694 9.8207C49.0581 9.8207 48.4863 10.2843 48.4505 11.2472H45.9847C46.1634 9.17877 47.8073 8.07324 50.0408 8.07324C52.5245 8.07324 53.8468 9.33926 53.8468 11.6216V17.1671H51.506L51.4882 15.6337C50.8985 16.6857 50.0587 17.3454 48.665 17.3454ZM48.3969 14.6529C48.3969 15.3127 48.8973 15.6693 49.6656 15.6693C50.7556 15.6693 51.3988 14.9204 51.3988 13.7792V12.9411L49.5405 13.4761C48.7543 13.7079 48.3969 14.0823 48.3969 14.6529Z" fill="#2C2C30"/>
<path d="M34.7834 17.1674V5.04224H37.2313V9.87448H42.3953V5.04224H44.8433V17.1674H42.3953V12.1034H37.2313V17.1674H34.7834Z" fill="#2C2C30"/>
<path d="M14.4966 16.4114V20.3749C14.4966 21.9614 13.2189 23.246 11.6409 23.246H7.68992C6.11189 23.246 4.83417 21.9614 4.83417 20.3749V16.4114C4.83417 15.6004 4.51326 14.8219 3.94211 14.2477L0.894998 11.1842C0.320904 10.61 0 9.82857 0 9.01756V3.71924C0 2.13274 1.27773 0.848145 2.85575 0.848145H6.80669C8.38472 0.848145 9.66244 2.13274 9.66244 3.71924V9.01756C9.66244 9.82857 9.98335 10.607 10.5545 11.1812L13.6016 14.2447C14.1728 14.8189 14.4937 15.5974 14.4937 16.4084L14.4966 16.4114Z" fill="#2C2C30"/>
<path d="M26.8613 15.8046V20.3749C26.8613 21.9614 25.5836 23.246 24.0056 23.246H20.0546C18.4766 23.246 17.1989 21.9614 17.1989 20.3749V15.8046C17.1989 14.9936 16.878 14.2151 16.3068 13.6409L13.2597 10.5774C12.6885 10.0032 12.3676 9.22475 12.3676 8.41374V3.71924C12.3647 2.13274 13.6424 0.848145 15.2204 0.848145H19.1714C20.7494 0.848145 22.0271 2.13274 22.0271 3.71924V8.41078C22.0271 9.22179 22.348 10.0002 22.9192 10.5745L25.9663 13.638C26.5375 14.2122 26.8584 14.9906 26.8584 15.8016L26.8613 15.8046Z" fill="#2C2C30"/>
</svg>
